# 3ds Max Wavefront OBJ Exporter v0.97b - (c)2007 guruware
# File Created: 15.11.2018 13:22:04

#
# object Hexagon
#

v  0.0000 0.0000 -0.0000
v  -0.0000 0.0000 -25.0000
v  21.6506 0.0000 -12.5000
v  21.6506 0.0000 12.5000
v  -21.6506 0.0000 12.5000
v  -21.6506 0.0000 -12.5000
v  -0.0000 0.0000 25.0000
v  21.6506 0.5000 -12.5000
v  21.6506 0.5000 12.5000
v  -0.0000 0.5000 -25.0000
v  -21.6506 0.5000 -12.5000
v  -21.6506 0.5000 12.5000
v  -0.0000 0.5000 25.0000
v  21.6506 1.0000 -12.5000
v  21.6506 1.0000 12.5000
v  -0.0000 1.0000 -25.0000
v  -21.6506 1.0000 -12.5000
v  -21.6506 1.0000 12.5000
v  -0.0000 1.0000 25.0000
v  21.6506 1.5000 -12.5000
v  21.6506 1.5000 12.5000
v  -0.0000 1.5000 -25.0000
v  -21.6506 1.5000 -12.5000
v  -21.6506 1.5000 12.5000
v  -0.0000 1.5000 25.0000
v  21.6506 2.0000 -12.5000
v  21.6506 2.0000 12.5000
v  -0.0000 2.0000 -25.0000
v  -21.6506 2.0000 -12.5000
v  -21.6506 2.0000 12.5000
v  -0.0000 2.0000 25.0000
v  21.6506 2.5000 -12.5000
v  21.6506 2.5000 12.5000
v  -0.0000 2.5000 -25.0000
v  -21.6506 2.5000 -12.5000
v  -21.6506 2.5000 12.5000
v  -0.0000 2.5000 25.0000
v  0.0000 2.5000 -0.0000
# 38 vertices

vn 0.0000 -1.0000 -0.0000
vn 0.8660 0.0000 0.5000
vn 0.8660 0.0000 -0.5000
vn -0.0000 0.0000 -1.0000
vn -0.8660 0.0000 -0.5000
vn -0.8660 0.0000 0.5000
vn 0.0000 0.0000 1.0000
vn 0.0000 1.0000 -0.0000
# 8 vertex normals

vt 0.5000 0.0000 0.0000
vt 0.6667 0.0000 -0.0000
vt 0.9167 0.0000 1.0000
vt 0.7500 0.0000 1.0000
vt 0.4167 0.0000 1.0000
vt 0.2500 0.0000 1.0000
vt 0.0833 0.0000 1.0000
vt 0.5833 0.0000 1.0000
vt 0.9167 0.2000 1.0000
vt 0.7500 0.2000 1.0000
vt -0.0833 0.0000 1.0000
vt 0.0833 0.2000 1.0000
vt -0.0833 0.2000 1.0000
vt 0.2500 0.2000 1.0000
vt 0.4167 0.2000 1.0000
vt 0.5833 0.2000 1.0000
vt 0.9167 0.4000 1.0000
vt 0.7500 0.4000 1.0000
vt 0.0833 0.4000 1.0000
vt -0.0833 0.4000 1.0000
vt 0.2500 0.4000 1.0000
vt 0.4167 0.4000 1.0000
vt 0.5833 0.4000 1.0000
vt 0.9167 0.6000 1.0000
vt 0.7500 0.6000 1.0000
vt 0.0833 0.6000 1.0000
vt -0.0833 0.6000 1.0000
vt 0.2500 0.6000 1.0000
vt 0.4167 0.6000 1.0000
vt 0.5833 0.6000 1.0000
vt 0.9167 0.8000 1.0000
vt 0.7500 0.8000 1.0000
vt 0.0833 0.8000 1.0000
vt -0.0833 0.8000 1.0000
vt 0.2500 0.8000 1.0000
vt 0.4167 0.8000 1.0000
vt 0.5833 0.8000 1.0000
vt 0.9167 1.0000 1.0000
vt 0.7500 1.0000 1.0000
vt 0.0833 1.0000 1.0000
vt -0.0833 1.0000 1.0000
vt 0.2500 1.0000 1.0000
vt 0.4167 1.0000 1.0000
vt 0.5833 1.0000 1.0000
vt 0.5000 1.0000 0.0000
# 45 texture coords

g Hexagon
s 1
f 1/1/1 2/2/1 3/3/1 4/4/1 
f 1/1/1 5/5/1 6/6/1 2/7/1 
f 1/1/1 4/4/1 7/8/1 5/5/1 
s 8
f 4/4/2 3/3/3 8/9/3 9/10/2 
f 3/11/3 2/7/4 10/12/4 8/13/3 
f 2/7/4 6/6/5 11/14/5 10/12/4 
f 6/6/5 5/5/6 12/15/6 11/14/5 
f 5/5/6 7/8/7 13/16/7 12/15/6 
f 7/8/7 4/4/2 9/10/2 13/16/7 
f 9/10/2 8/9/3 14/17/3 15/18/2 
f 8/13/3 10/12/4 16/19/4 14/20/3 
f 10/12/4 11/14/5 17/21/5 16/19/4 
f 11/14/5 12/15/6 18/22/6 17/21/5 
f 12/15/6 13/16/7 19/23/7 18/22/6 
f 13/16/7 9/10/2 15/18/2 19/23/7 
f 15/18/2 14/17/3 20/24/3 21/25/2 
f 14/20/3 16/19/4 22/26/4 20/27/3 
f 16/19/4 17/21/5 23/28/5 22/26/4 
f 17/21/5 18/22/6 24/29/6 23/28/5 
f 18/22/6 19/23/7 25/30/7 24/29/6 
f 19/23/7 15/18/2 21/25/2 25/30/7 
f 21/25/2 20/24/3 26/31/3 27/32/2 
f 20/27/3 22/26/4 28/33/4 26/34/3 
f 22/26/4 23/28/5 29/35/5 28/33/4 
f 23/28/5 24/29/6 30/36/6 29/35/5 
f 24/29/6 25/30/7 31/37/7 30/36/6 
f 25/30/7 21/25/2 27/32/2 31/37/7 
f 27/32/2 26/31/3 32/38/3 33/39/2 
f 26/34/3 28/33/4 34/40/4 32/41/3 
f 28/33/4 29/35/5 35/42/5 34/40/4 
f 29/35/5 30/36/6 36/43/6 35/42/5 
f 30/36/6 31/37/7 37/44/7 36/43/6 
f 31/37/7 27/32/2 33/39/2 37/44/7 
s 1
f 38/45/8 37/44/8 33/39/8 32/38/8 
f 38/45/8 32/41/8 34/40/8 35/42/8 
f 38/45/8 35/42/8 36/43/8 37/44/8 
# 36 polygons

